<svg xmlns="http://www.w3.org/2000/svg" version="1.1" xmlns:xlink="http://www.w3.org/1999/xlink" xmlns:svgjs="http://svgjs.com/svgjs" width="375" height="194" preserveAspectRatio="none" viewBox="0 0 375 194"><g mask="url(&quot;#SvgjsMask1152&quot;)" fill="none"><rect width="375" height="194" x="0" y="0" fill="#1e3266"></rect><path d="M387.5 194L0 194 L0 165.18Q4.88 151.31, 18.75 156.19Q36.31 142.5, 50 160.06Q63.7 155.01, 68.75 168.71Q84.01 152.72, 100 167.98Q104.24 153.47, 118.75 157.71Q128.16 148.37, 137.5 157.77Q152.29 153.81, 156.25 168.61Q167.2 148.31, 187.5 159.26Q198.18 151.19, 206.25 161.86Q221.32 145.68, 237.5 160.75Q249.05 153.55, 256.25 165.1Q261.12 151.22, 275 156.09Q285.97 148.31, 293.75 159.28Q309.41 143.69, 325 159.35Q342.34 145.44, 356.25 162.78Q369.09 144.38, 387.5 157.22z" fill="#182f5d"></path><path d="M393.75 194L0 194 L0 175.97Q16.28 161, 31.25 177.29Q40.84 155.63, 62.5 165.23Q82.75 154.23, 93.75 174.48Q100.62 162.59, 112.5 169.46Q127.3 153.01, 143.75 167.82Q155.5 160.81, 162.5 172.56Q177.22 156.03, 193.75 170.74Q205.06 163.3, 212.5 174.6Q218.08 161.43, 231.25 167.01Q247.55 152.06, 262.5 168.36Q277.45 152.06, 293.75 167.02Q305.56 160.09, 312.5 171.9Q330.03 158.19, 343.75 175.72Q356.23 156.95, 375 169.43Q382.46 158.14, 393.75 165.6z" fill="#25467d"></path><path d="M387.5 194L0 194 L0 177.46Q12.97 171.68, 18.75 184.65Q23.57 170.72, 37.5 175.54Q49.59 168.88, 56.25 180.97Q68.82 174.79, 75 187.36Q84.93 166.04, 106.25 175.97Q119.51 170.48, 125 183.74Q137.33 164.82, 156.25 177.16Q167.22 169.38, 175 180.35Q183.84 170.44, 193.75 179.28Q207.14 173.92, 212.5 187.3Q222.76 166.31, 243.75 176.58Q264.82 166.4, 275 187.47Q284.78 166, 306.25 175.78Q321.86 160.13, 337.5 175.74Q358.36 165.34, 368.75 186.2Q376.66 175.36, 387.5 183.27z" fill="#356cb1"></path><path d="M381.25 194L0 194 L0 192.1Q7.41 180.76, 18.75 188.18Q32.51 183.19, 37.5 196.95Q45.09 185.79, 56.25 193.38Q68.13 174.01, 87.5 185.9Q103.33 170.48, 118.75 186.31Q133.73 182.54, 137.5 197.52Q148.66 177.44, 168.75 188.6Q184.54 173.14, 200 188.94Q217.25 174.94, 231.25 192.19Q243.51 173.2, 262.5 185.47Q276.69 180.92, 281.25 195.11Q286.89 182, 300 187.64Q315.39 171.78, 331.25 187.17Q349.75 174.42, 362.5 192.92Q367.59 179.25, 381.25 184.34z" fill="white"></path></g><defs><mask id="SvgjsMask1152"><rect width="375" height="194" fill="#ffffff"></rect></mask></defs></svg>