<svg xmlns="http://www.w3.org/2000/svg" version="1.1" xmlns:xlink="http://www.w3.org/1999/xlink" xmlns:svgjs="http://svgjs.com/svgjs" width="1440" height="560" preserveAspectRatio="none" viewBox="0 0 1440 560"><g mask="url(&quot;#SvgjsMask1000&quot;)" fill="none"><rect width="1440" height="560" x="0" y="0" fill="#1e3266"></rect><path d="M1560 560L0 560 L0 343.18Q47.35 270.53, 120 317.89Q177.79 303.68, 192 361.47Q237.44 286.92, 312 332.36Q331.14 279.5, 384 298.65Q412.31 254.95, 456 283.26Q559.61 266.87, 576 370.48Q584.19 306.68, 648 314.87Q671.26 266.13, 720 289.4Q776.38 273.78, 792 330.16Q871.38 289.54, 912 368.91Q917.11 302.01, 984 307.12Q1033.7 236.82, 1104 286.52Q1180.66 243.18, 1224 319.84Q1269.17 293.01, 1296 338.18Q1308.33 278.5, 1368 290.83Q1411.38 262.22, 1440 305.6Q1531.32 276.92, 1560 368.24z" fill="#182f5d"></path><path d="M1512 560L0 560 L0 425.43Q22.63 376.06, 72 398.7Q117.16 323.86, 192 369.02Q244.19 301.21, 312 353.4Q376.25 345.65, 384 409.9Q434.5 340.4, 504 390.91Q556.9 323.81, 624 376.71Q698.25 330.95, 744 405.2Q820.39 361.59, 864 437.98Q892.37 394.35, 936 422.71Q964.17 378.88, 1008 407.06Q1020.38 347.44, 1080 359.83Q1145.89 353.73, 1152 419.62Q1178.19 373.81, 1224 400Q1241.08 345.08, 1296 362.16Q1342.62 336.77, 1368 383.39Q1411.89 355.28, 1440 399.18Q1486.71 373.89, 1512 420.61z" fill="#25467d"></path><path d="M1464 560L0 560 L0 512.38Q38.49 430.88, 120 469.37Q167.29 444.66, 192 491.95Q233.12 413.07, 312 454.19Q361.76 383.95, 432 433.71Q513.33 395.04, 552 476.37Q598.81 403.18, 672 449.99Q751.33 409.31, 792 488.64Q826.54 403.18, 912 437.72Q978.6 384.32, 1032 450.91Q1097.66 396.58, 1152 462.24Q1233.3 423.54, 1272 504.84Q1275.16 436, 1344 439.17Q1409.41 384.58, 1464 449.99z" fill="#356cb1"></path><path d="M1512 560L0 560 L0 492.74Q103.41 476.15, 120 579.56Q164.59 504.14, 240 548.73Q247.34 484.07, 312 491.41Q377.91 437.32, 432 503.23Q499.28 498.51, 504 565.79Q550.22 540, 576 586.22Q581.47 519.69, 648 525.17Q672.51 477.68, 720 502.2Q750.74 460.94, 792 491.68Q866.76 446.44, 912 521.2Q967.76 504.96, 984 560.72Q1036.71 493.43, 1104 546.15Q1150.29 472.44, 1224 518.73Q1283.58 506.31, 1296 565.88Q1341.77 539.65, 1368 585.43Q1375.06 520.49, 1440 527.56Q1457.65 473.21, 1512 490.87z" fill="white"></path></g><defs><mask id="SvgjsMask1000"><rect width="1440" height="560" fill="#ffffff"></rect></mask></defs></svg>